<svg width="20" height="20" viewBox="0 0 20 20" fill="none" xmlns="http://www.w3.org/2000/svg">
<path d="M6.03341 5.33366C6.03341 3.14192 7.80835 1.36699 10.0001 1.36699C12.1918 1.36699 13.9667 3.14192 13.9667 5.33366C13.9667 7.52539 12.1918 9.30033 10.0001 9.30033C7.80835 9.30033 6.03341 7.52539 6.03341 5.33366ZM1.36675 15.8337C1.36675 15.3149 1.62105 14.8088 2.16179 14.3097C2.7073 13.8062 3.49634 13.3586 4.4256 12.9864C6.28524 12.2414 8.53009 11.867 10.0001 11.867C11.4701 11.867 13.7149 12.2414 15.5746 12.9864C16.5038 13.3586 17.2929 13.8062 17.8384 14.3097C18.3791 14.8088 18.6334 15.3149 18.6334 15.8337V18.6337H1.36675V15.8337Z" stroke="#C2CFE0" stroke-width="1.4"/>
</svg>
